<svg role="img" viewBox="0 0 24 24" xmlns="http://www.w3.org/2000/svg">
  <title>LinkedIn</title>
  <path fill="#ffffff" d="M20.447 20.452h-3.554v-5.569c0-1.328-.027-3.039-1.852-3.039-1.853 0-2.136 1.445-2.136 2.939v5.669H9.352V9h3.414v1.561h.049c.476-.9 1.637-1.852 3.369-1.852 3.602 0 4.267 2.371 4.267 5.455v6.288zM5.337 7.433a2.062 2.062 0 01-2.062-2.058c0-1.138.926-2.063 2.062-2.063a2.062 2.062 0 012.063 2.063c0 1.132-.926 2.058-2.063 2.058zm1.777 13.019H3.56V9h3.554v11.452zM22.225 0H1.771C.792 0 0 .774 0 1.729v20.542C0 23.226.792 24 1.771 24h20.451C23.2 24 24 23.226 24 22.271V1.729C24 .774 23.2 0 22.222 0h.003z"/>
</svg>
